<svg width="55" height="20" viewBox="0 0 55 20" fill="none" xmlns="http://www.w3.org/2000/svg">
<path fill-rule="evenodd" clip-rule="evenodd" d="M19.4871 20C20.5559 20 21.5384 19.4231 22.0453 18.4979C23.7208 15.4392 27.3714 8.77553 27.3714 8.77553C27.3714 8.77553 30.9386 15.2802 32.5919 18.2949C33.099 19.2194 34.0811 19.7959 35.1494 19.7959C36.5148 19.7959 38.1887 19.7959 38.1887 19.7959L27.3962 0L16.5075 20H19.4871V20ZM14.7359 17.9592L23.4528 1.83674H0C0 1.83674 0.74564 3.30311 1.34305 4.47805C1.79195 5.36079 2.70949 5.91837 3.71316 5.91837H16.6742L15.5562 7.95922H3.32077C3.32077 7.95922 4.06641 9.4256 4.66382 10.6005C5.11272 11.4832 6.03019 12.0408 7.03393 12.0408H13.3201L12.3139 13.8775H6.43396C6.43396 13.8775 7.1796 15.344 7.77701 16.5188C8.22592 17.4016 9.14346 17.9592 10.1471 17.9592C11.9919 17.9592 14.7359 17.9592 14.7359 17.9592V17.9592ZM40.2641 17.9592L31.5472 1.83674H55C55 1.83674 54.2544 3.30311 53.657 4.47805C53.2081 5.36079 52.2905 5.91837 51.2868 5.91837H38.3258L39.4438 7.95922H51.6792C51.6792 7.95922 50.9336 9.4256 50.3362 10.6005C49.8873 11.4832 48.9698 12.0408 47.9661 12.0408H41.6799L42.6861 13.8775H48.566C48.566 13.8775 47.8204 15.344 47.223 16.5188C46.7741 17.4016 45.8565 17.9592 44.8529 17.9592C43.0081 17.9592 40.2641 17.9592 40.2641 17.9592Z" fill="#BBBBBB"/>
</svg>
