<svg width="23" height="24" viewBox="0 0 23 24" fill="none" xmlns="http://www.w3.org/2000/svg">
<g clip-path="url(#clip0_6_572)">
<path fill-rule="evenodd" clip-rule="evenodd" d="M11.5 0.5C5.14625 0.5 0 5.64625 0 12C0 17.0887 3.29187 21.3869 7.86312 22.9106C8.43812 23.0112 8.65375 22.6663 8.65375 22.3644C8.65375 22.0913 8.63938 21.1856 8.63938 20.2225C5.75 20.7544 5.0025 19.5181 4.7725 18.8712C4.64312 18.5406 4.0825 17.52 3.59375 17.2469C3.19125 17.0313 2.61625 16.4994 3.57937 16.485C4.485 16.4706 5.13187 17.3187 5.3475 17.6637C6.3825 19.4031 8.03562 18.9144 8.69687 18.6125C8.7975 17.865 9.09937 17.3619 9.43 17.0744C6.87125 16.7869 4.1975 15.795 4.1975 11.3962C4.1975 10.1456 4.64313 9.11063 5.37625 8.30563C5.26125 8.01813 4.85875 6.83937 5.49125 5.25813C5.49125 5.25813 6.45437 4.95625 8.65375 6.43688C9.57375 6.17813 10.5512 6.04875 11.5287 6.04875C12.5062 6.04875 13.4837 6.17813 14.4037 6.43688C16.6031 4.94188 17.5662 5.25813 17.5662 5.25813C18.1987 6.83937 17.7963 8.01813 17.6813 8.30563C18.4144 9.11063 18.86 10.1312 18.86 11.3962C18.86 15.8094 16.1719 16.7869 13.6131 17.0744C14.03 17.4337 14.3894 18.1237 14.3894 19.2019C14.3894 20.74 14.375 21.9763 14.375 22.3644C14.375 22.6663 14.5906 23.0256 15.1656 22.9106C17.4485 22.1399 19.4323 20.6726 20.8377 18.7154C22.2431 16.7582 22.9993 14.4095 23 12C23 5.64625 17.8537 0.5 11.5 0.5Z" fill="black"/>
</g>
<defs>
<clipPath id="clip0_6_572">
<rect width="23" height="23" fill="white" transform="translate(0 0.5)"/>
</clipPath>
</defs>
</svg>
