<svg width="23" height="24" viewBox="0 0 23 24" fill="none" xmlns="http://www.w3.org/2000/svg">
<path fill-rule="evenodd" clip-rule="evenodd" d="M11.5 23.5C17.8513 23.5 23 18.3513 23 12C23 5.64873 17.8513 0.5 11.5 0.5C5.14873 0.5 0 5.64873 0 12C0 18.3513 5.14873 23.5 11.5 23.5ZM14.0341 13.4599C14.5818 13.9032 15.1844 14.1756 15.8273 14.1756C16.2452 14.1751 16.646 14.009 16.9417 13.7135C17.2373 13.4181 17.4038 13.0174 17.4046 12.5994C17.4043 12.1814 17.2381 11.7805 16.9424 11.4849C16.6468 11.1892 16.2459 11.023 15.8278 11.0227C14.667 11.0227 14.2925 12.1409 14.1717 12.8077L14.1671 12.8322L14.0341 13.4599ZM12.7297 11.9741C13.1964 10.3892 14.3462 9.42728 15.8273 9.42728C17.5773 9.42728 19 10.85 19 12.6C19 14.3489 17.5773 15.7792 15.8273 15.7792C15.01 15.7792 14.2972 15.5284 13.6771 15.1323L12.9695 18.4631H11.3379L12.3138 13.8705C11.8518 13.2919 11.4709 12.6374 11.1623 11.9916V12.6858C11.1623 14.3856 9.77983 15.7792 8.08058 15.7792C6.3825 15.7792 5 14.3856 5 12.6858V8.53711H6.596V12.6858C6.59631 13.0796 6.75276 13.4572 7.03106 13.7358C7.30936 14.0144 7.68678 14.1713 8.08058 14.1721C8.47454 14.1715 8.85218 14.0147 9.13069 13.7361C9.40921 13.4574 9.56587 13.0797 9.56633 12.6858V8.53711H11.1623C11.4767 9.61978 12.0181 10.9043 12.7297 11.9741Z" fill="black"/>
</svg>
